<svg width="512" height="512" viewBox="0 0 512 512" fill="none" xmlns="http://www.w3.org/2000/svg">
  <rect width="512" height="512" rx="112" fill="#F8FAFC"/>
  <rect x="44" y="44" width="424" height="424" rx="96" fill="url(#bg)"/>
  <path d="M155 329c24 31 61 47 110 47 70 0 115-33 115-85 0-47-35-70-103-83l-34-7c-31-6-45-16-45-32 0-20 21-33 54-33 34 0 58 12 76 36l45-38c-25-35-65-53-119-53-66 0-110 34-110 84 0 45 33 70 98 83l34 7c35 7 49 17 49 35 0 21-24 34-60 34-38 0-65-13-85-40l-25 45Z" fill="white"/>
  <path d="M154 332c25 31 63 47 111 47 70 0 118-33 118-88 0-48-36-73-104-86l-34-7c-29-6-43-15-43-29 0-18 20-30 51-30 32 0 55 11 73 34l49-41c-26-35-66-54-121-54-68 0-113 35-113 87 0 46 34 72 100 85l34 7c33 7 47 16 47 32 0 19-22 31-57 31-37 0-63-13-83-39l-28 51Z" stroke="#DFF7EE" stroke-width="10" stroke-linejoin="round"/>
  <circle cx="384" cy="130" r="30" fill="#B7F3DE"/>
  <circle cx="127" cy="381" r="19" fill="#7DD3FC"/>
  <defs>
    <linearGradient id="bg" x1="88" y1="79" x2="433" y2="447" gradientUnits="userSpaceOnUse">
      <stop stop-color="#0F9F6E"/>
      <stop offset="0.52" stop-color="#19B9A7"/>
      <stop offset="1" stop-color="#1D7FF2"/>
    </linearGradient>
  </defs>
</svg>
